<svg width="104" height="126" fill="none" xmlns="http://www.w3.org/2000/svg"><g clip-path="url(#clip0_2018_191)"><path d="M92.451 3.262l8.641 6.032c2.688 1.876 2.102 6.01-1.001 7.067L90.31 19.69c-3.207 1.091-6.234-2.049-5.026-5.214l1.027-2.691a4 4 0 00.233-1.92l-.352-2.83c-.427-3.437 3.42-5.756 6.26-3.773z" fill="#FFBB24"/><path opacity=".2" d="M83.787 10.54C24.406 5.56-18.904 48.427 16.738 77.59c12.643 10.344 28.35 9.194 37.928-.383 10.727-10.727 12.26-28.35 1.532-39.077-23.752-23.753-81.602 1.149-39.843 88.114" stroke="#F15060" stroke-width="2" stroke-linecap="round" stroke-dasharray="5.2 5.2"/></g><defs><clipPath id="clip0_2018_191"><path fill="#fff" d="M0 0h104v126H0z"/></clipPath></defs></svg>