<svg width="48" height="48" fill="none" xmlns="http://www.w3.org/2000/svg"><path d="M26.818 3.182a4.5 4.5 0 016.364 0l11.636 11.636a4.5 4.5 0 010 6.364L33.182 32.818a4.5 4.5 0 01-6.364 0L15.182 21.182a4.5 4.5 0 010-6.364L26.818 3.182z" fill="url(#paint0_linear_701_69)"/><path d="M5.333 21.333A2.667 2.667 0 002.667 24v13.333A2.667 2.667 0 005.333 40h13.334V24A2.667 2.667 0 0016 21.333H5.333z" fill="#90ECF4"/><path d="M22.15 25.333h-3.483V40h8a2.667 2.667 0 002.666-2.667v-5.215c0-.75-.315-1.465-.87-1.97l-4.516-4.119a2.667 2.667 0 00-1.797-.696z" fill="#444BD3"/><path fill-rule="evenodd" clip-rule="evenodd" d="M9.333 42.667a2.667 2.667 0 100-5.334 2.667 2.667 0 000 5.334zm16.553-.781c.5-.5.78-1.179.78-1.886h-5.333a2.667 2.667 0 004.553 1.886z" fill="#444BD3"/><defs><linearGradient id="paint0_linear_701_69" x1="30" y1="0" x2="30" y2="36" gradientUnits="userSpaceOnUse"><stop stop-color="#DEDEDE"/><stop offset="1" stop-color="#DEDEDE" stop-opacity="0"/></linearGradient></defs></svg>