<svg width="48" height="48" fill="none" xmlns="http://www.w3.org/2000/svg"><path d="M26.818 3.182a4.5 4.5 0 016.364 0l11.636 11.636a4.5 4.5 0 010 6.364L33.182 32.818a4.5 4.5 0 01-6.364 0L15.182 21.182a4.5 4.5 0 010-6.364L26.818 3.182z" fill="url(#paint0_linear_701_86)"/><path d="M5.333 44c0-.736.597-1.333 1.334-1.333h18.666a1.333 1.333 0 010 2.666H6.667A1.333 1.333 0 015.333 44z" fill="#90ECF4"/><path d="M18.278 19.836a4 4 0 015.657 0l1.562 1.562a4 4 0 010 5.657l-.554.555-7.22-7.22.555-.554zM7.73 30.396a2 2 0 00-.395.75l-1.943 6.99a1.467 1.467 0 001.806 1.805l6.99-1.943c.276-.076.531-.211.75-.394l-7.209-7.208z" fill="#444BD3"/><path d="M24.943 27.61l-7.22-7.22-9.875 9.877a1.818 1.818 0 00-.119.129l7.208 7.208c.045-.037.088-.077.13-.118l9.876-9.876z" fill="#90ECF4"/><defs><linearGradient id="paint0_linear_701_86" x1="30" y1="0" x2="30" y2="36" gradientUnits="userSpaceOnUse"><stop stop-color="#DEDEDE"/><stop offset="1" stop-color="#DEDEDE" stop-opacity="0"/></linearGradient></defs></svg>