<svg width="48" height="48" fill="none" xmlns="http://www.w3.org/2000/svg"><path d="M26.818 3.182a4.5 4.5 0 016.364 0l11.636 11.636a4.5 4.5 0 010 6.364L33.182 32.818a4.5 4.5 0 01-6.364 0L15.182 21.182a4.5 4.5 0 010-6.364L26.818 3.182z" fill="url(#paint0_linear_701_23)"/><path fill-rule="evenodd" clip-rule="evenodd" d="M17.057 33.057c.52-.52 1.365-.52 1.886 0l8.666 8.667a1.333 1.333 0 11-1.885 1.885l-8.667-8.666a1.333 1.333 0 010-1.886z" fill="#90ECF4"/><path d="M13.333 20a9.333 9.333 0 100 18.667 9.333 9.333 0 000-18.667z" fill="#444BD3"/><defs><linearGradient id="paint0_linear_701_23" x1="30" y1="0" x2="30" y2="36" gradientUnits="userSpaceOnUse"><stop stop-color="#DEDEDE"/><stop offset="1" stop-color="#DEDEDE" stop-opacity="0"/></linearGradient></defs></svg>