<svg width="426" height="579" viewBox="0 0 426 579" fill="none" xmlns="http://www.w3.org/2000/svg">
<g clip-path="url(#clip0_2406_286)">
<g opacity="0.05">
<path fill-rule="evenodd" clip-rule="evenodd" d="M53.6394 201.524C46.8811 264.319 47.1824 336.742 56.5868 399.281C61.7906 433.886 90.033 460.414 124.895 463.446L161.33 466.612C237.301 473.217 313.7 473.217 389.672 466.612L426.106 463.446C460.969 460.414 489.212 433.886 494.415 399.281C503.819 336.742 504.121 264.323 497.361 201.527C496.488 194.247 495.506 186.977 494.415 179.719C489.212 145.115 460.969 118.586 426.106 115.555L389.672 112.388C313.7 105.784 237.301 105.784 161.33 112.388L124.895 115.555C90.033 118.586 61.7906 145.115 56.5868 179.719C55.4956 186.976 54.5133 194.245 53.6394 201.524ZM164.463 148.44C238.348 142.017 312.653 142.017 386.538 148.44L422.972 151.607C441.169 153.189 455.912 167.037 458.628 185.1C458.911 186.976 459.186 188.853 459.454 190.731L325.294 265.264C294.328 282.468 256.673 282.468 225.706 265.264L91.5485 190.732C91.8153 188.854 92.0899 186.977 92.3719 185.1C95.0884 167.037 109.831 153.189 128.029 151.607L164.463 148.44ZM463.88 229.668C468.561 284.376 466.809 339.499 458.628 393.899C455.912 411.964 441.169 425.811 422.972 427.394L386.538 430.562C312.653 436.984 238.348 436.984 164.463 430.562L128.029 427.394C109.831 425.811 95.0884 411.964 92.3719 393.899C84.1914 339.499 82.4408 284.379 87.1204 229.668L208.132 296.897C250.029 320.173 300.972 320.173 342.867 296.897L463.88 229.668Z" fill="url(#paint0_linear_2406_286)"/>
</g>
</g>
<defs>
<linearGradient id="paint0_linear_2406_286" x1="29.4069" y1="521.752" x2="579.286" y2="380.431" gradientUnits="userSpaceOnUse">
<stop offset="0.0001" stop-color="#D74596"/>
<stop offset="0.365877" stop-color="#F2464E"/>
<stop offset="0.685771" stop-color="#857ADD"/>
<stop offset="1" stop-color="#0192DE"/>
</linearGradient>
<clipPath id="clip0_2406_286">
<rect width="565" height="579" fill="white"/>
</clipPath>
</defs>
</svg>
