<svg width="24" height="24" fill="none" xmlns="http://www.w3.org/2000/svg"><g clip-path="url(#clip0_2008_186)" fill="#121127" fill-opacity=".32"><path d="M12 2.775c3 0 3.36.011 4.546.065a6.22 6.22 0 012.09.388c.488.18.93.468 1.292.841.374.363.661.805.842 1.293.248.67.38 1.376.387 2.09.055 1.188.068 1.548.068 4.548s-.011 3.36-.065 4.546a6.221 6.221 0 01-.388 2.09 3.728 3.728 0 01-2.134 2.134 6.22 6.22 0 01-2.09.387c-1.186.055-1.542.066-4.546.066-3.004 0-3.36-.011-4.546-.066a6.22 6.22 0 01-2.089-.387 3.483 3.483 0 01-1.293-.842 3.483 3.483 0 01-.841-1.293 6.22 6.22 0 01-.388-2.09c-.057-1.185-.07-1.541-.07-4.545s.011-3.36.065-4.546a6.22 6.22 0 01.388-2.09c.181-.488.47-.93.844-1.292a3.483 3.483 0 011.293-.842 6.22 6.22 0 012.09-.388C8.64 2.788 9 2.775 12 2.775zM12 .75c-3.056 0-3.439.013-4.638.068a8.283 8.283 0 00-2.732.525 5.5 5.5 0 00-1.991 1.296A5.523 5.523 0 001.34 4.63a8.283 8.283 0 00-.525 2.732C.763 8.562.75 8.944.75 12s.013 3.439.068 4.638c.02.934.197 1.857.525 2.731.282.75.726 1.43 1.298 1.992a5.522 5.522 0 001.992 1.299 8.279 8.279 0 002.731.525c1.2.055 1.583.067 4.638.067 3.056 0 3.439-.012 4.638-.067a8.28 8.28 0 002.732-.525 5.763 5.763 0 003.29-3.29 8.284 8.284 0 00.525-2.732c.055-1.2.067-1.583.067-4.638 0-3.056-.012-3.439-.067-4.638a8.284 8.284 0 00-.525-2.732 5.524 5.524 0 00-1.298-1.991 5.524 5.524 0 00-1.992-1.299A8.283 8.283 0 0016.64.815C15.44.763 15.055.75 12 .75z"/><path d="M12 6.225a5.775 5.775 0 100 11.55 5.775 5.775 0 000-11.55zm0 9.525a3.75 3.75 0 110-7.5 3.75 3.75 0 010 7.5zm6.005-8.405a1.35 1.35 0 100-2.7 1.35 1.35 0 000 2.7z"/></g><defs><clipPath id="clip0_2008_186"><path fill="#fff" d="M0 0h24v24H0z"/></clipPath></defs></svg>