<svg width="24" height="24" fill="none" xmlns="http://www.w3.org/2000/svg"><g clip-path="url(#clip0_2008_185)"><path d="M24 4.575c-.9.375-1.8.675-2.85.75 1.05-.6 1.8-1.575 2.175-2.7-.975.6-2.025.975-3.15 1.2C19.275 2.85 18 2.25 16.65 2.25c-2.7 0-4.95 2.175-4.95 4.95 0 .375.075.75.15 1.125C7.725 8.1 4.125 6.15 1.65 3.15a4.72 4.72 0 00-.675 2.475c0 1.725.9 3.225 2.175 4.125a4.582 4.582 0 01-2.25-.6v.075c0 2.4 1.725 4.35 3.975 4.8-.45.075-.825.15-1.275.15-.3 0-.6 0-.9-.075.6 1.95 2.475 3.375 4.575 3.45-1.65 1.35-3.825 2.1-6.15 2.1-.375 0-.825 0-1.2-.075 2.25 1.35 4.875 2.175 7.65 2.175 9.075 0 14.025-7.5 14.025-14.025v-.6c.9-.75 1.725-1.575 2.4-2.55z" fill="#121127" fill-opacity=".32"/></g><defs><clipPath id="clip0_2008_185"><path fill="#fff" d="M0 0h24v24H0z"/></clipPath></defs></svg>