<svg width="24" height="24" fill="none" xmlns="http://www.w3.org/2000/svg"><g clip-path="url(#clip0_2008_187)"><path fill-rule="evenodd" clip-rule="evenodd" d="M12 .3C5.4.3 0 5.7 0 12.3c0 5.325 3.45 9.825 8.175 11.4.6.075.825-.225.825-.6v-2.025c-3.375.75-4.05-1.575-4.05-1.575-.525-1.35-1.35-1.725-1.35-1.725-1.125-.75.075-.75.075-.75 1.2.075 1.875 1.2 1.875 1.2 1.05 1.8 2.775 1.275 3.525.975a2.59 2.59 0 01.75-1.575c-2.7-.3-5.475-1.35-5.475-5.925 0-1.275.45-2.4 1.2-3.225-.15-.3-.525-1.5.15-3.15 0 0 .975-.3 3.3 1.2.975-.3 1.95-.375 3-.375s2.025.15 3 .375c2.325-1.575 3.3-1.275 3.3-1.275.675 1.65.225 2.85.15 3.15.75.825 1.2 1.875 1.2 3.225 0 4.575-2.775 5.625-5.475 5.925.45.375.825 1.125.825 2.25v3.3c0 .3.225.675.825.6A12.015 12.015 0 0024 12.3c0-6.6-5.4-12-12-12z" fill="#121127" fill-opacity=".32"/></g><defs><clipPath id="clip0_2008_187"><path fill="#fff" d="M0 0h24v24H0z"/></clipPath></defs></svg>