<svg width="32" height="32" fill="none" xmlns="http://www.w3.org/2000/svg"><path fill-rule="evenodd" clip-rule="evenodd" d="M9.667 13.333a6.333 6.333 0 1112.666 0 6.333 6.333 0 01-12.666 0zM16 9a4.333 4.333 0 100 8.667A4.333 4.333 0 0016 9z" fill="#268CDE"/><path fill-rule="evenodd" clip-rule="evenodd" d="M4.7 11.81A11.05 11.05 0 0115.711 1.666h.576A11.05 11.05 0 0127.3 11.808a11.923 11.923 0 01-2.653 8.528l-6.39 7.816a2.916 2.916 0 01-4.515 0l-6.391-7.816a11.924 11.924 0 01-2.653-8.528zm11.012-8.143a9.05 9.05 0 00-9.02 8.306A9.924 9.924 0 008.9 19.072l6.39 7.816a.916.916 0 001.42 0l6.39-7.816a9.924 9.924 0 002.208-7.098 9.05 9.05 0 00-9.02-8.306h-.576z" fill="#268CDE"/></svg>