<svg width="90" height="36" fill="none" xmlns="http://www.w3.org/2000/svg"><path d="M34.26 7.875v19.024h6.947c5.696 0 9.044-3.533 9.044-9.558s-3.361-9.466-9.044-9.466H34.26zm3.401 2.874h3.19c3.797 0 5.933 2.347 5.933 6.605 0 4.337-2.11 6.67-5.933 6.67h-3.19V10.75zm15.056 16.15h3.282V7.875h-3.282v19.024zM68.05 22.72c-.357 1.16-1.517 1.925-3.046 1.925-2.149 0-3.52-1.503-3.52-3.744v-.198h9.769v-1.068c0-4.245-2.479-7-6.447-7-4.034 0-6.592 2.913-6.592 7.33 0 4.456 2.532 7.21 6.724 7.21 3.31 0 5.761-1.818 6.183-4.455H68.05zm-3.23-7.541c1.885 0 3.15 1.384 3.216 3.362H61.51c.132-1.951 1.464-3.362 3.31-3.362zm13.776 6.711l2.9 5.009h3.587l-4.443-7.067 4.495-6.908h-3.599l-2.782 4.905h-.066l-2.82-4.905h-3.692l4.469 7-4.509 6.975h3.494l2.9-5.01h.066z" fill="#444BD3"/><path fill-rule="evenodd" clip-rule="evenodd" d="M13.509 31.5c7.451-.005 13.49-6.047 13.49-13.5S20.962 4.505 13.51 4.5c5.28 2.206 8.99 7.42 8.99 13.5s-3.71 11.293-8.99 13.5z" fill="#444BD3" fill-opacity=".32"/><path d="M0 9.3c0-2.65 2.12-4.8 4.737-4.8h3.138c7.456 0 13.5 6.045 13.5 13.5 0 7.456-6.044 13.5-13.5 13.5H4.737C2.12 31.5 0 29.351 0 26.7V9.3z" fill="#444BD3"/></svg>