<svg width="88" height="36" fill="none" xmlns="http://www.w3.org/2000/svg"><path d="M33.498 7.875V26.9h6.794c5.568 0 8.843-3.533 8.843-9.558s-3.288-9.466-8.843-9.466h-6.794zm3.326 2.874h3.12c3.712 0 5.8 2.347 5.8 6.605 0 4.337-2.062 6.671-5.8 6.671h-3.12V10.749zM51.545 26.9h3.21V7.874h-3.21V26.9zm14.992-4.18c-.348 1.16-1.482 1.925-2.978 1.925-2.1 0-3.441-1.503-3.441-3.744v-.198h9.551v-1.068c0-4.245-2.423-7-6.303-7-3.944 0-6.445 2.913-6.445 7.33 0 4.456 2.475 7.21 6.574 7.21 3.236 0 5.633-1.818 6.046-4.455h-3.004zm-3.158-7.541c1.843 0 3.08 1.384 3.145 3.362h-6.38c.128-1.951 1.43-3.362 3.235-3.362zM76.85 21.89l2.836 5.009h3.506l-4.344-7.066 4.395-6.909h-3.519l-2.72 4.905h-.064l-2.759-4.905h-3.61l4.37 7-4.408 6.975h3.416l2.836-5.01h.065z" fill="#121127"/><path fill-rule="evenodd" clip-rule="evenodd" d="M13.209 31.5c7.286-.005 13.19-6.047 13.19-13.5S20.496 4.505 13.21 4.5C18.372 6.706 22 11.92 22 18s-3.628 11.293-8.79 13.5z" fill="#121127" fill-opacity=".32"/><path d="M0 9.3c0-2.65 2.074-4.8 4.632-4.8H7.7c7.29 0 13.2 6.045 13.2 13.5 0 7.456-5.91 13.5-13.2 13.5H4.632C2.074 31.5 0 29.351 0 26.7V9.3z" fill="#121127"/></svg>