<svg width="32" height="32" fill="none" xmlns="http://www.w3.org/2000/svg"><path fill-rule="evenodd" clip-rule="evenodd" d="M3.738 11.138c-.373 3.47-.357 7.473.163 10.93a4.184 4.184 0 003.775 3.546l2.014.174a72.84 72.84 0 0012.62 0l2.014-.174a4.184 4.184 0 003.775-3.547c.52-3.456.536-7.459.163-10.93a40.53 40.53 0 00-.163-1.204 4.184 4.184 0 00-3.775-3.547l-2.014-.175a72.864 72.864 0 00-12.62 0l-2.014.175a4.184 4.184 0 00-3.775 3.547c-.06.4-.114.802-.163 1.205zm6.125-2.934a70.862 70.862 0 0112.274 0l2.013.175a2.184 2.184 0 011.971 1.851l.046.311-7.415 4.12a5.667 5.667 0 01-5.504 0l-7.415-4.12.046-.311a2.184 2.184 0 011.97-1.851l2.014-.175zm16.548 4.49c.259 3.023.162 6.07-.29 9.076a2.184 2.184 0 01-1.97 1.851l-2.014.175c-4.084.355-8.19.355-12.274 0l-2.013-.175a2.184 2.184 0 01-1.971-1.851 38.8 38.8 0 01-.29-9.077l6.688 3.716a7.667 7.667 0 007.446 0l6.688-3.716z" fill="#268CDE"/></svg>