<svg width="24" height="24" fill="none" xmlns="http://www.w3.org/2000/svg"><path d="M20 8H4a1 1 0 00-1 1v2a1 1 0 001 1h16a1 1 0 001-1V9a1 1 0 00-1-1zm-8 0v13" stroke="#fff" stroke-width="2" stroke-linecap="round" stroke-linejoin="round"/><path d="M19 12v7a2 2 0 01-2 2H7a2 2 0 01-2-2v-7m2.5-4a2.5 2.5 0 110-5c.965-.017 1.91.451 2.713 1.343C11.015 5.235 11.638 6.51 12 8c.362-1.49.985-2.765 1.787-3.657.803-.892 1.748-1.36 2.713-1.343a2.5 2.5 0 010 5" stroke="#fff" stroke-width="2" stroke-linecap="round" stroke-linejoin="round"/></svg>